<?xml version="1.0" encoding="utf-8"?>
<!-- Generator: Adobe Illustrator 23.0.2, SVG Export Plug-In . SVG Version: 6.00 Build 0)  -->
<svg version="1.1" id="Layer_1" xmlns="http://www.w3.org/2000/svg" xmlns:xlink="http://www.w3.org/1999/xlink" x="0px" y="0px"
	 viewBox="0 0 1024 1024" style="enable-background:new 0 0 1024 1024;" xml:space="preserve">
<path fill="#6a7282" d="M578.8,728.9c18.7-1.2,37.5-0.9,56.3-1.5c13.3-0.6,26.5-0.9,39.8-1.2c-4.8-0.2-9.5,0.1-14.3-0.1
	c-13.5,0.1-27.1-1.3-40.6-1.8c12.9-1.3,25.8-1.4,38.7-2.1c-13.3-1.5-26.7-2.1-40-3.6c6.1-0.4,12.1-1.5,18.1-1.9
	c-6.7-0.6-13.3-1.4-20.1-1.6c2.9-2.6,5.1-5.9,8-8.6c-4.1,2.2-8.2,4.4-11.8,7.4c0.9-2.1,1.5-4.4,2.9-6.3c-2.3,1.6-4.5,3.3-6.3,5.4
	c0.8-2,1.6-4,2.5-5.9c-2.1,1.5-4.2,3.1-6,5c0.3-2.7,1.3-5.3,3.5-7.2c-2.6,1.5-4.9,3.5-6.7,5.8c0.3-2.7,1.3-5.3,3.1-7.5
	c-3.4,2.5-6.4,5.8-7.6,9.8c-0.3-2.4-0.3-4.7,0.1-7.1c-1.3,1.9-3,3.4-3.9,5.5c0.3-3.4-1-6.6-1.6-9.9c-0.5,3.9-2.3,7.5-3.2,11.3
	c-1.4-3.5-4.2-6.1-6.4-9.2c-1.9-2.5-1.9-5.8-1.9-8.8c0-3.7-1.2-7.5-3.7-10.3c-2-2.2-5.6-1.2-7.3,0.8c-1.7-2.2-2.8-4.8-4.5-7
	c2.1,4.8,4.3,9.7,5.1,14.9c1.4,7.7,1.4,16.1-2.4,23.2c1.9-7.6,3-15.7,0.9-23.4c-0.1,1.8-0.1,3.6-0.5,5.3c-0.8-7.3-2.6-14.5-4.7-21.5
	l0.9,0.2c-1.7-5.8-4.3-11.3-6.6-17c2.4,2.9,4.6,6.1,6.9,9.1c-1.3-5.2-2.9-10.3-4.6-15.4c-1.6-5.3-4-10.4-7.8-14.5
	c-1.1-1.4-2.9-2.5-3-4.4c1.6-0.6,3.3-0.8,4.9-1.3c-0.1,0.2-0.4,0.7-0.5,1c-1,0.3-1.9,0.5-2.9,0.8c1.5,1.9,2.9,3.8,4.4,5.8
	c-0.5-1.9-1.8-3.7-1.7-5.7c1.8-1.5,4-2.4,5.7-4.1c1.9,0,3.7,0.4,5.5,0.6c26,4.4,52,8.7,78.2,11.1c-3-2.6-6.3-5-9.1-8
	c-0.4-0.5-0.9-0.8-1.5-0.8c-23.2-3.3-46.2-7.3-69.2-11.5c0.7-13.3,7-25.3,11-37.8c1.2-3.8,2.5-7.7,2.1-11.8
	c-0.7-7.8-3.8-15.4-8.6-21.6c1.8,1,3,2.7,4.5,4.1c-2.6-5.1-5.1-10.3-6.7-15.8c1.6,2,3,4.2,4.4,6.3c-1-4-2.6-7.9-4.6-11.5
	c-3.2-4.7-2.4-10.6-2.8-15.9c0-1.9-1-4-0.1-5.9c1.4-3.5,3.1-6.8,4.2-10.4c-12.2,3.2-23.9,10.3-31,20.9c2.3-5.8,6.8-10.5,11.8-14.1
	c5.7-4.4,12.5-7.1,19.6-8.5c-4.3-1.1-8.7-1.1-13.1-0.9c2.3-0.8,4.6-1.8,7.1-2.3c-7.5-3.5-15.2-6.7-22.8-10.2c0-3.4,0.3-6.8,0-10.2
	c-4.7-0.1-9.5-0.3-14-1.9c1.4-6.6,4.4-12.9,4.3-19.7c1.5-4.4-1.8-8-4.4-11.2c1.5,0.9,2.9,2,3.9,3.4c-1.2-5.8-4-11.1-7.7-15.7
	c6.1,4.3,8.4,11.9,8.9,19c0.8-6.8,0.1-14.4-4-20.2c-3-3.7-7.4-6-11.9-7c3,1.6,5.8,3.8,7.9,6.6c-4.7-3.3-9.8-6.3-15.5-7.4
	c-4.2-0.9-8.1,1.7-11,4.6c-7.6,6.9-10,18.2-7.5,27.9c2.3,7.1,7.3,13,10.6,19.6c-3.8-3.8-6.8-8.5-9-13.4c0.8,4.6,3,8.8,4.2,13.3
	c-1-1.5-1.8-3.2-2.6-4.7c0.9,8.2,1.3,16.4,1.8,24.6c-1-3.8-2.1-7.5-3.1-11.3c-1.4,3.1-3.9,5.8-4.5,9.2c-1.3,7.5,0.4,15.1,2.2,22.4
	c-2.4-4.2-3.5-9-5.3-13.5c0,3.5,0.7,6.9,1.4,10.3c-2.4-4.4-3.6-9.3-4.2-14.2c-0.7,2.8-1.3,5.7-1.1,8.6c0.6,10.1,3.9,19.9,8.5,28.9
	c-7.6-9.3-10.8-21.4-11.4-33.2c-0.6,1.2-1.1,2.4-1.9,3.5c0.7-2.1,0.6-4.4,1.3-6.5c2.8-3.4,6.3-6.2,9.2-9.5c-4.6,2.7-8.9,6-13.9,8
	c-2.6,1.1-5.1,2.8-6.8,5.1c3.2-1.8,6.3-3.8,9.9-5c-0.1,2.2-0.4,4.5-0.1,6.8c0.4,2.2-0.8,4.3-0.9,6.5c-0.5-3.5-1.2-7-1-10.5
	c-2.6,1.5-5.2,3.3-8.1,4.2c0.2,7.2,4.2,13.3,7.2,19.5c-2.1-2.3-3.5-5.1-4.8-7.8c0.1,4.3,0.1,8.7,1.1,12.9c0.3,1.8,1.1,3.5,0.9,5.4
	c-1.2,8-1.9,16.2-0.6,24.3c0.5,1.7-1.4,2.6-2.1,3.9c-4.5,5.3-5.4,12.4-8.1,18.5c-5.3,12.2-9.4,25.2-17.4,36
	c-1.8-3.5-5.1-5.8-7.2-9.2c3.9,0.1,7.9,0.4,11.7-0.3c-4-0.6-8.1-0.3-12.2-0.5c-0.8-0.4-1.2-1.3-1.7-2c3.7-0.1,7.3-0.3,11-0.2
	c-3.8-0.5-7.7-0.4-11.5-0.5c-1.7-1.5-2.8-3.5-4-5.4c7.8-0.1,15.7-0.1,23.5-0.1c-8.1-0.8-16.3-0.8-24.4-1.1c-1-1.1-1.7-2.5-2.6-3.7
	c8,0.1,15.9-0.4,23.9-0.2c-8.1-0.8-16.3-0.9-24.5-1c-0.8-1.3-1.6-2.6-2.3-4c7.2,0.1,14.5-0.2,21.7-0.2c-7.5-0.4-14.9-1.1-22.4-1.1
	c-0.6-0.9-1.2-1.9-1.7-3c7.6,0.5,15.2,0.3,22.8,0.1c-7.8-0.6-15.6-1.2-23.4-1.6c-0.9-1.1-1.2-2.4-1.8-3.6c6.8,0.1,13.7,0.2,20.5-0.3
	c-7,0-14-0.9-21-0.8c-0.5-1-1-2.1-1.4-3.1c11,0.3,22.1-0.3,33.1,0.1c-11.2-1-22.4-1.5-33.6-1.8c-0.6-0.9-0.9-2-1.2-3
	c7.9,0,15.7,0,23.6-0.3c-8-0.5-16.1-1.2-24.2-1.2c-0.2-0.9-0.4-1.8-0.6-2.6c12.5,0.6,25,0.1,37.4-0.1c-12.6-1.2-25.3-1.7-38-2.2
	c-0.6-1.5-0.8-3.1-1.2-4.7c5.8,0.1,11.5-0.3,17.3-0.2c-5.8-0.7-11.7-0.9-17.5-1.1c-0.2-0.9-0.3-1.7-0.5-2.5
	c10.6-0.2,21.2-0.4,31.8-0.6c-10.7-0.9-21.4-0.7-32.1-1.1c-0.2-1.3-0.4-2.5-0.5-3.8c7,0.2,14-0.1,21-0.2c-7-0.6-14-0.7-21-0.9
	c-0.3-1.3-0.4-2.7-0.4-4c6.8,0,13.7,0.1,20.5-0.2c-6.9-0.6-13.8-0.8-20.6-0.9c-0.1-1.4-0.1-2.9-0.1-4.3c6.1-0.2,12.2,0.1,18.3-0.3
	c-6.1-0.5-12.2-0.4-18.3-0.6c0-1.5,0-3,0-4.5c6.9,0,13.8-0.2,20.7-0.3c-6.8-0.6-13.7-0.4-20.5-0.7c0-1.1,0-2.2,0.1-3.4
	c9.7-0.1,19.5-0.4,29.2-0.9c-9.6-0.5-19.3-1-28.9-1.3c0.1-1.3,0.1-2.5,0.3-3.8c5-0.3,10-0.1,14.9-0.6c-4.9-0.3-9.8-0.4-14.7-0.4
	c0.1-1.5,0.3-2.9,0.5-4.4c15.8-0.2,31.7-0.3,47.5-0.8c-15.6-1.1-31.2-1.7-46.8-2.1c0.4-1.6,0.7-3.2,1-4.8c7.2-0.5,14.4-0.5,21.6-0.5
	c-7-0.7-14.1-0.7-21.1-0.9c0.4-1.7,0.7-3.3,1.2-5c6.4-0.3,12.9-0.1,19.3-0.7c-6.2-0.6-12.5-0.5-18.7-1c1.1-3.3,2.4-6.5,3.8-9.6
	c0.2-0.9,1.3-0.8,2-0.9c4.5-0.3,9-0.5,13.5-0.4c-4.8-0.5-9.7-0.3-14.5-0.8c2.1-4.5,4.6-8.7,7.2-12.9c9.3-0.2,18.7-0.3,28-0.8
	c-8.9-0.5-17.9-0.8-26.9-1c16.2-24.4,41.8-41.4,69.2-51.1c-30.3,5.4-58.1,23.6-75.3,49.1c-7,10.3-12.5,21.6-15.8,33.5
	c-6,19.9-5.5,41.5-0.1,61.6c0.7,2.9,1.8,5.7,3.1,8.5c0.2-1.1,0.1-2.2,0.1-3.4c0.9,1.4,1.8,2.9,2.6,4.3c-0.7-2-1-4-1-6.1
	c2.1,5.3,4.4,10.4,7.2,15.4c-0.2,0.1-0.7,0.3-0.9,0.3c1.9,0,2.4,2.2,3.3,3.5c6,9.5,13.5,17.9,21.8,25.4c-1.8,1.7-3.7,3.5-5,5.6
	c2.2-1.7,4-4,6.5-5.2c2.4-1.3,5.3-1.4,8-0.8c-4.9,0.6-11,2.9-11.7,8.5c-11.5-0.9-22.9-2.3-34.4-3c-2.3,2.2-2.6,6.2-1,8.9
	c11.4,1.1,22.9,2,34.2,3.4c0.6,1.1,1.1,2.2,1.6,3.3c1.8,0.1,3.5-1,4.8-2.2c2.2-2.7,2.1-6.3,2.3-9.6c0.9,3.2,0.6,6.9-1.4,9.7
	c-1.4,2-4.1,2.1-5.7,3.9c2.1,0.8,4.7,2.1,6.6,0.1c3.5,0.4,7-0.6,10.4-1.3c0.2-0.8,0.5-1.7,0.7-2.5c0.4,0.4,0.7,0.8,1.1,1.2
	c2-3.4,4.7-6.3,6.6-9.7c-1.9-0.3-3.9-0.4-5.8-0.6c0.3-2.5-0.1-5.2-2-7c4.6-10.4,12.9-18.5,19.9-27.3c0.7-0.9,0.9-2.1,0.9-3.2
	c-0.1-2.4,1-4.7,1.2-7.1c1,2.4,2.5,4.5,4,6.5c-1.2-0.6-2.3-1.3-3.6-1.8c1.7,3.4,5.7,4.7,8.6,6.7c-3.4-0.9-6.4-2.9-9.3-4.9
	c0.7,2.9,0.8,5.8,1.8,8.6c0.7,1.3-0.6,2.3-1.1,3.3c0.5-0.1,0.9-0.2,1.4-0.3c-4,5.5-8.3,10.7-12,16.5c2.2-1.7,4.8-2.8,7.4-4
	c-4.7,8-10.1,15.5-15.2,23.1c-4.1,5.8-8.6,11.4-12,17.7c3-2.9,6.3-5.5,9.9-7.5c-4.9,5.4-9.4,11.2-12.5,17.8c6-7.9,13.6-14.5,21.1-21
	c-7.5,9.8-16.3,18.8-22.5,29.6c-3.2,5.6-5,11.8-6.1,18.1c5.7-12.3,15.8-21.8,24.5-32c-5,8.7-10.3,17.2-15.4,25.8
	c-2.8,4.5-5.6,9.1-7,14.2c1.7-2.8,3.4-5.7,5.5-8.2c-2.1,5.7-7.1,11.3-5.2,17.7c1.6,3.9,3.8,7.6,6.5,10.9c-2.9-1.5-5.9-3-7.7-5.7
	c-1.8-3-1.9-6.6-2.2-10c-1.1,2.5-2.6,4.7-3.2,7.4c-1.1-3.5-3.5-6.5-5.7-9.3c1.3,2.8,1.4,6,1.8,9c-1.6-3.1-4.5-5.1-6.9-7.5
	c1.3,2.4,2.3,5,2.9,7.7c-1.6-2.4-3.8-4.4-6.1-6.1c1.2,2,1.9,4.2,2.3,6.4c-1.6-1.8-3.4-3.3-5.2-4.9c0.9,2.1,1.8,4.2,2.5,6.4
	c-2.1-2.1-4.7-3.8-6.9-5.9c1,1.9,1.7,4,2.7,5.9c-3.2-3.1-7.3-5.1-11.1-7.4c2.8,2.7,5.1,5.9,7.5,8.9c-6.3,0.4-12.6,0.9-18.8,1.7
	c5.7,0.4,11.4,1.6,17.1,2c-12.6,1.4-25.3,2.1-37.8,3.6c12,0.5,24.1,0.9,36.1,1.9c-7.5,0.7-15.1,0.9-22.6,1.6c-9.5,0.8-19,0-28.4,0.9
	c7.8-0.1,15.5,0.2,23.3,0.2c24.2,1.2,48.4,0.9,72.5,1.9c-18.4,0.7-36.9,0.9-55.3,2c-9.6,0.6-19.3,0.2-29,0.9c28.6,0.8,57.1,2,85.7,2
	c-2.4,0.3-4.9,0.4-7.3,0.4c-21,0.6-42,1.3-63,1.5c18.6,1.1,37.3,1.4,55.9,1.3c15.8,0,31.7,0.2,47.5-0.7c21.4-0.5,42.9-0.9,64.3-1.6
	c30.9-0.7,61.7-0.9,92.6-2.2c7.2-0.3,14.4-0.1,21.5-0.7c-4.9-0.1-9.9-0.4-14.8-0.4C625.4,731,602.1,729.3,578.8,728.9z M402.5,630.7
	c-0.2,0.1-0.6,0.2-0.9,0.3c-1.3-2.1-1.7-5.7,0.5-7.4C403.3,625.8,402.9,628.4,402.5,630.7z M407.5,629.3c-0.2-1-0.3-2.1-0.3-3.2
	c0.4,0.5,0.8,0.9,1.2,1.4C408.3,628.2,408.1,628.8,407.5,629.3z M411.9,629.8c-0.3-1-0.4-2.1-0.5-3.2c0.4,0.2,0.8,0.4,1.2,0.5
	C412.6,628.1,412.5,629,411.9,629.8z M404,624.5c3-0.4,5.9,0.5,8.9,0.2c0.1,0.1,0.2,0.4,0.2,0.6C410.1,625.1,407,625.2,404,624.5z
	 M416.8,630c-0.9-1-0.7-2.5-1.1-3.8C417,627.2,417.3,628.6,416.8,630z M420.7,630.4c-0.3-1.5-0.2-2.9,0-4.4
	c-2.3-0.2-4.6-0.2-6.9-0.6c2.4-0.6,4.8,0.4,7.2,0.3C420.4,627.3,422.1,629.1,420.7,630.4z M425.4,630.4c-1-0.4-0.9-1.7-1.2-2.5
	C425.9,627.4,425.5,629.4,425.4,630.4z M429.4,630.8c-1-0.5-0.7-1.8-1-2.7c0.3,0.1,0.7,0.3,1,0.4C429.5,629.2,429.5,630,429.4,630.8
	z M422.9,626.2c2.4,0,4.8,0.3,7.1,0.4C427.8,627.3,425.2,626.6,422.9,626.2z M433.3,631.2c-0.7-1-0.7-2.3-0.5-3.4
	C433.7,628.7,433.8,630,433.3,631.2z M456.7,629.3c1,0.9,1.5,3.1,0,3.8C456.6,631.9,456.6,630.6,456.7,629.3z M445.8,631.1
	c-0.6-1.7-0.8-3.6-1.2-5.4c-0.4-1.8-1.8-3.1-2.5-4.8c2.5-2.8,7.2-0.5,8.4,2.6c-1-0.9-2.1-1.6-3.5-1.6c0.4,0.6,0.9,1.1,1.3,1.7
	C445.4,624.8,446.2,628.6,445.8,631.1z M453.6,633.3c-1.1,0.8-2.4,1-3.6,1.3c0.5-2.1,0.8-4.2,1.4-6.3
	C453.3,629,454.4,631.3,453.6,633.3z M459.5,580.6c-0.3-6.1,2.7-11.8,6.6-16.3C463.8,569.7,461.4,575,459.5,580.6z M561,523.3
	c-0.6-3.2-1.6-6.3-1.5-9.5C560.6,516.8,561.4,520,561,523.3z M539.8,568.7c0.7-5.9,4.3-11,6.8-16.3c0.3-1.3-0.6-2.5-0.8-3.6
	c2.8,3.8,5.2,7.8,7.3,12c1.1,2,0.3,4.4,0.4,6.6c1.1-3.1,1.7-6.5,2.8-9.6c0.2,5.1-1.5,9.9-2.6,14.7c-1.7,7,1.1,14.2,0.2,21.3
	c-0.8,5.5-2.3,11-4.8,16c1.7-1.9,3.1-4.2,4.9-6c-0.9,2.1-1.9,4.2-3.1,6.2c1.1,0.2,2.1,0.5,3.2,0.7c-5.7,0.3-11.4,0-17-1.1
	c1.5,3.2,5.3,2.6,8.2,3.1c-1.6,0.3-3.3,0.4-4.9,0.5c1.1,3.8,1.9,8.2,0,11.9c1.1-4.8,0.6-11.4-4.1-14.2c-0.1-0.4-0.3-0.8-0.4-1.2
	c-2.4-0.5-3.1,2-3.8,3.7c-0.7,0.1-1.3-0.1-1.9-0.2c0.4-2.6,2.5-5.2,5.2-5.2c2.2,0.3,4.2,1.3,6.4,1.6c-1.7-3-3.7-5.8-5.7-8.6
	c2.4,1.5,4.9,2.8,7.1,4.6c-1.5-2.7-4.5-4.6-4.9-7.9c-0.5-3.4-1-6.7-1.7-10c-0.1-0.7-0.9-0.7-1.4-1c0.1-0.7,0.1-1.5,0.2-2.2
	c-1.1,0.8-2.3,1.4-3.5,1.9c1-1.2,3-1.7,3.2-3.5c0.2-4.2,3.3-7.4,4-11.5c-3.9,0.6-7.9,1.2-11.8,2
	C531.4,571.6,535.4,569.2,539.8,568.7z M507.4,616.9c-1.1,1-2.3-0.5-2.6-1.5c-0.9-3.4,0.1-7.5,3.1-9.5c3.1,0.7,5.9,2.3,8.9,3.4
	c6.7,2.6,13.4,5,20.2,7.3c0,0.9-0.1,1.9-0.1,2.9c-9.3-2.4-18.6-5.5-27-10.4C510,611.7,509.5,614.8,507.4,616.9z M529.9,602.5
	c-5.2,0.9-10.5,0.2-15.6-0.7C519.5,601.6,524.7,602,529.9,602.5z M514.1,599.2c4.9-1,10-1.4,15-0.8
	C524.3,599.5,519.1,600.4,514.1,599.2z M524.7,595.2c-5.5,1-11.2,1.6-16.8,1.4c9.4-2,19.3-2.5,28-7
	C532.9,592.7,528.8,594.3,524.7,595.2z M504.8,586.6c5.7-1.4,11.4-3,17.2-3.3C516.5,585.2,510.7,586.9,504.8,586.6z M534.7,579.7
	c-4.5,4.5-11.3,6.3-17.5,6.9C523.1,584.4,528.7,581.4,534.7,579.7z M533.1,613.8c0.7-1.3,1.8-2.3,3.2-3c-0.7,1-1.4,2-2.1,2.9
	C533.8,613.7,533.3,613.7,533.1,613.8z M532.3,626.4c-0.2,1-0.6,1.9-1.1,2.7c-1.3-1-2.8-1.9-3.5-3.4
	C529.3,625.8,530.8,626.1,532.3,626.4z M525.5,629.1c-2.5-1.5-4.9-3.1-7-5.1c2.4,0.9,5,1.5,6.9,3.2
	C525.5,627.9,525.5,628.5,525.5,629.1z M535.7,697.4c-8-3.8-13.9-10.7-18.9-17.9C523,685.6,529.3,691.5,535.7,697.4z M533,633.3
	c2.3-2.9,6-4.4,7.5-8C539.2,628.8,536.8,632.3,533,633.3z M514.2,485.6c5.6-6.4,9.1-14.3,12.8-21.9C525.3,472,521.8,481,514.2,485.6
	z M518.2,449.9c3.3,0.1,6.8,1,9.3,3.1c-0.3,2.9-0.3,5.9-1,8.8c-4.1-0.2-7.3-4.3-11.5-3.3c-4.2,0.8-8.3,2.4-12.6,2.3
	c-1.7,0-3.5-1.3-3.4-3.1c0-2.2,0.1-4.3,0.5-6.5C505.6,449.5,511.9,449.6,518.2,449.9z M495.4,432.6c-3,3.2-4.3,7.6-4.9,11.9
	c-1-7.4,2.7-14.9,8.8-19.1c3.5-1.6,7.6-0.9,11.1,0.3c-4.2-0.3-8.6,0-12,2.6c1.8,0,3.5,0.2,5.3,0.5
	C500.6,429.2,497.6,430.5,495.4,432.6z M470.9,532.9c1.6,8.6,5.1,16.6,8.5,24.6C473.7,550.7,470.6,541.7,470.9,532.9z M476.7,582.7
	c-1.6-2-3.8-3.5-5.5-5.4c4.5-14.5,12.3-27.8,20.7-40.4c10.3-15.3,22-29.6,34.4-43.2c1.5-1.9,3.4-3.5,4.5-5.7
	c0.4-0.6,0.3-1.5-0.4-1.8c-2.8-1.5-5.9-2.7-7.7-5.4c1.2,2.2,2.1,4.5,2.9,6.8c-1.7-2.5-4.3-5.1-3.9-8.4c1.1,0.2,1.6,1.3,2.4,1.9
	c2.3,2.2,5.6,2.8,8.5,3.6c0.9,0.8,1,2.2,1.4,3.3c7.7,2.3,14.8,6.4,22.4,9.3c-4.6,1.4-9.1,3.1-13.5,5c1.9-2,4.1-3.7,6.1-5.7
	c-9,2.4-14.2,10.7-19.6,17.6c3.2-6.8,7.6-13.1,10.2-20.1c-2.9,2.5-5.4,5.2-8.1,7.9c1.9-3.7,3.6-7.5,5.9-11.1
	c-11,7.4-19.9,17.3-28.4,27.3c-9.3,11.7-18.5,23.6-25.6,36.8c-3.4,6.8-6.3,13.9-8.7,21.1c-0.8,1.7,1.1,2.9,2.1,4
	c2,2.2,4.9,3.5,6.6,6c-0.9-0.4-1.9-0.8-2.8-1.1c1.4,2.6,4,4.3,5.8,6.6C482.3,589.8,479.2,586.4,476.7,582.7z M485.3,564.4
	c-2.2,2.9-4.3,5.8-6.8,8.5C480,569.5,482.5,566.7,485.3,564.4z M480.9,603.2c-1.5,2.2-3.6,3.9-5.7,5.5
	C476.6,606.4,478.4,604.2,480.9,603.2z M467.4,666.2c3.3-8.7,5.4-17.9,6.6-27.2c1.4-8.5,2.3-17.4,6.5-25.1
	c-5,15.6-4.5,32.4-10.7,47.6C469.1,663.1,468.4,664.7,467.4,666.2z M479.8,618.3c0.8-2.7,2.9-4.6,4.5-6.7
	c-1.8,6.3-4.3,12.5-5.8,18.9C478.8,626.4,478.6,622.2,479.8,618.3z M486.1,668.9c-0.1-8.4-0.3-16.8-1-25.1
	c-0.9,12.4-0.2,24.9-0.6,37.4c-1.5-18.5-1.5-37.3,1.5-55.7C486.6,639.9,487.5,654.5,486.1,668.9z M480,594.4c2.9,1,5.8,2.4,8.3,4.3
	C485.3,597.7,482.3,596.5,480,594.4z M492.7,602.1c-0.4-2.2-0.4-4.5,0.5-6.6c-1.4,1.6-1.9,3.8-2.4,5.8c-0.2-2-0.6-4.7,1.4-6
	c4.6-1.6,9.5-1.1,14.3-1.1c-3.6,1.1-7.3,2.3-10.1,5c0.4-1.8,1.7-3.1,2.9-4.5C495.7,595.7,492.8,598.3,492.7,602.1z M524.9,709.8
	c-3.1-4.2-5.8-8.5-8.2-13.1c-5.8,0.3-11.6-1.4-17.3-2.3c2.2-6.4,4.7-12.8,7.3-19c4.7,7.8,9.3,15.6,14.9,22.8
	c2.6,3.4,5.6,6.5,7.9,10.1c-1.9-1.1-3.3-2.7-4.9-4c3.8,5.6,8.3,10.7,13.1,15.5C532.9,717.4,528.2,714.3,524.9,709.8z M543.8,633.6
	c-2,1.8-4.7,0.7-6.3-1.1c2.1,0.3,4.3,1.1,6.4,0.3C543.9,633,543.8,633.4,543.8,633.6z M544.1,634.2c1.7-1,3.9-0.5,5.8-0.7
	C549,635.7,545.7,635.5,544.1,634.2z M584.4,455.7c-3.4,0.2-6.9,0.1-10.3,0.6c3.8,0.1,7.7,0.2,11.5,0.3c4,3.8,7.6,8,10.8,12.4
	c-3.7,0.3-7.5,0.2-11.2,0.6c4.1,0.1,8.1,0.6,12.2,0.5c1.5,2.5,3.5,4.7,4.8,7.3c-4.9,0.3-9.9,0.4-14.8,0.7c5.3,0.3,10.6,0.5,15.9,0.7
	c1.1,1.9,2.2,3.8,3.3,5.7c-13.5,0.3-27.1,0.3-40.6,0.9c-5.2,0.1-10.3,0.5-15.5,0.4c19.1,1.3,38.3,1.3,57.5,1.2
	c0.9,1.6,1.6,3.3,2.4,5c-9.5,0-18.9-0.1-28.4,0.3c9.6,0.4,19.3,0.6,28.9,0.6c1.7,3.5,3.3,7.2,4.6,10.9c-6.5,0.2-13,0.5-19.4,0.5
	c6.6,0.7,13.3,0.4,20,0.7c0.5,2,1.2,3.9,1.8,5.8c-9.2,0-18.4,0.4-27.6,0.5c9.3,0.9,18.7,0.4,28,0.9c0.7,3.1,1.6,6.2,2,9.4
	c-5.4,0.4-10.9,0.3-16.3,0.8c5.5,0.4,11,0.3,16.5,0.6c0.3,1.5,0.5,2.9,0.5,4.4c-13.5,0.2-27,0.6-40.5,1.2c13.6,0.7,27.3,1.2,41,1.2
	c0.2,2.6,0.5,5.2,0.5,7.8c-3.5,0-7,0.1-10.6,0.4c3.5,0.4,7.1,0.2,10.6,0.4c0,0.9,0,1.8,0.1,2.7c-8.2,0.2-16.5,0.1-24.7,0.8
	c8.2,0,16.5,0.1,24.7,0.3c0,3.4-0.4,6.7-0.7,10.1c-8.7,0-17.4-0.1-26.1,0.3c8.6,0.4,17.2,0.7,25.8,0.9c-0.1,1.2-0.2,2.4-0.3,3.5
	c-8.3-0.2-16.7,0.2-25,0.6c8.2,0.5,16.5,0.3,24.7,0.6c-0.2,1.1-0.3,2.2-0.6,3.3c-10.9,0.1-21.9,0.6-32.8,0.9
	c10.8,0.6,21.6,0.5,32.4,0.6c-0.1,0.6-0.2,1.2-0.3,1.8c-11.8,0.4-23.7,0.9-35.4,1.7c11.6,0.4,23.2,0.7,34.9,0.7
	c-0.3,0.9-0.5,1.8-0.9,2.7c-6.3,0.1-12.5,0.6-18.8,1c6.1,0.5,12.2,0.4,18.3,0.7c-0.3,1.1-0.6,2.2-0.9,3.2
	c-7.3,0.3-14.5,1.2-21.7,1.5c7,0.1,14,0.2,21.1,0.1c-0.3,0.8-0.5,1.7-0.7,2.5c-10.4-0.1-20.8,0.5-31.2,0.8c10.1,0.7,20.2,0.7,30.3,1
	c-0.4,0.8-0.3,2.4-1.5,2.4c-7,0.2-14,0.7-21,1.3c7-0.1,14,0.2,20.9,0.1c-0.7,1.1-0.9,2.7-1.9,3.5c-6.5,0.1-13,0.6-19.5,1.1
	c6.3,0.2,12.5,0.2,18.8,0.5c-0.4,0.7-0.7,1.5-1,2.2c-9.3,0.1-18.5,0.1-27.8,0.9c8.9,0.1,17.9,0.8,26.8,0.7c-0.5,0.9-1.1,1.9-1.8,2.7
	c-7.5-0.1-15.1,0.3-22.6,0.9c7.3,0.1,14.6,0.4,21.9,0.4c-1.2,1.3-1.6,3.9-3.7,3.9c-5.9,0.1-11.9,0.1-17.8,0.6
	c6.1,0.4,12.3,0,18.4,0.5c-1.1,1.4-2.1,2.9-3.2,4.3c-8.6,0-17.3,0.1-25.9,0.6c8.2,0.6,16.5,0.6,24.7,0.9c-2.6,3.3-5.4,6.3-8.2,9.2
	c-5.3-0.1-10.7-0.2-16,0.1c5.1,0.6,10.3,0.3,15.4,0.5c-1,1.4-2.3,2.6-3.5,3.9c11-7.8,20.4-17.8,27.6-29.2c0.7-0.1,1.3-0.1,2-0.2
	c-0.4-0.1-1.1-0.4-1.5-0.6c0.5-1.1,1.1-2.1,1.9-3c0.9-0.1,1.8-0.2,2.7-0.4c-0.8-0.1-1.6-0.2-2.3-0.2c0.8-1.4,1.5-2.9,2.3-4.3
	c0.6-0.1,1.3-0.2,1.9-0.3c-0.4-0.1-1.2-0.2-1.6-0.3c0.4-1,0.7-2,1.3-2.8c1.2-0.5,2.7-0.3,3.9-0.6c-1.2-0.1-2.3-0.2-3.5-0.3
	c0.4-1.2,0.8-2.4,1.4-3.6c1.5-0.1,3-0.2,4.5-0.4c-1.4-0.1-2.7-0.2-4.1-0.4c0.5-1.4,1-2.9,1.5-4.3c1.1,0,2.1,0,3.2,0
	c0.3-2.9,1-5.7,2.1-8.3c3-11.7,3.4-23.9,2.4-35.9c-3.1-29.6-18.7-57.4-41.6-76.2c-16.9-14.4-38.1-23.7-60.1-26.3
	c14,3.8,27.3,10.1,39.4,18.1C574.2,446.5,579.7,450.6,584.4,455.7z M625.9,565.1c0,1.9,0.1,3.9,0.3,5.8c-0.9,0-1.9-0.1-2.8-0.1
	C624,568.8,624.9,566.9,625.9,565.1z M508.2,454.2c-1.9-1-3.7-2.3-5.7-3.2c4.9-1.8,8.6,3.2,13.4,3.1c-0.4,0.9-0.8,1.7-1.1,2.6
	c-4.1,1.9-7.8-1-11.5-2.5C505,454.4,506.6,454.5,508.2,454.2z M518.1,457.4c0-1.1-0.1-2.3-0.1-3.4c3,1.1,6.1-3.1,9-0.7
	c-1.3,0.8-2.6,1.5-3.9,2.2c1.1,0.2,2.2-0.1,3.3-0.4C524.7,458.2,521,458.6,518.1,457.4z M618.1,547.7c-6.8,0.3-13.6,0.5-20.3,0
	C604.6,547.6,611.4,547.4,618.1,547.7z M507.8,606.4c2.5,2.9,1.2,7.5-1.1,10.1C503.5,613.9,505.7,609,507.8,606.4z M646.4,735.8
	c-22.4,1.4-44.9,1.3-67.4,2c-36.8,1.5-73.7,1.1-110.6,0.9c-11.2,0.1-22.5,0.5-33.7-0.4c12.1,0,24.3,0.2,36.4-0.8
	c10.5-1.2,21.2-1,31.8-1.5c18.2-0.2,36.4-0.3,54.5-0.5C587,734.8,616.7,735,646.4,735.8z M626.5,740c-25.9,0.5-51.8,1.3-77.7,1.5
	c16.4,1,32.8,0.8,49.2,1.6c-11.7,0.7-23.4,0.2-35.1,0.2c-19.3,0-38.6-0.1-57.9,0.6c0-0.2,0-0.6,0-0.8c-17.7-0.8-35.4,0.8-53.1,0.5
	c-5.1,0.1-10.3-0.3-15.4-0.2c13.8-1,27.7-0.3,41.5-1.2c-17.2-0.6-34.4-1.4-51.6-2.1c-7.3-0.3-14.6,0.1-21.9-0.7
	c9.6,0,19.3-0.4,28.9-0.1c18.3,0.1,36.6-0.4,54.9,0.3c21.1,0.3,42.1,0.5,63.2-0.3c22.5-0.2,45-0.3,67.5,0.1
	C621.5,739.7,624,739.5,626.5,740z"/>
</svg>
